# xmcd
#
# Track frame offsets:
#	150
#	14202
#	39645
#	54725
#	74560
#	88745
#	107322
#	121125
#	131727
#	153425
#	174252
#	184777
#	195985
#	217602
#	230612
#	241690
#
# Disc length: 3493 seconds
#
# Revision: 0
# Processed by: cddbd v1.5.2PL0 Copyright (c) Steve Scherf et al.
# Submitted via: EasyCDDAExtractor 2011.3.0.0
#
DISCID=d30da310
DTITLE=Irmãos Leonel - Seleção de Ouro
DYEAR=2010
DGENRE=Gospel
TTITLE0=Crente Miguel
TTITLE1=Existe Um Rio
TTITLE2=Através do Louvor
TTITLE3=Menino de Rua
TTITLE4=Brado de Jesus
TTITLE5=Graça Que é de Graça
TTITLE6=Emmanuel
TTITLE7=Pare, Pense e Volte
TTITLE8=Te Amo Meu Filho
TTITLE9=Pilatos
TTITLE10=O Vale
TTITLE11=Jerusalém
TTITLE12=Amor Sem Censura
TTITLE13=Última Ceia
TTITLE14=Getsêmani
TTITLE15=Quem Dera Hoje Vir
EXTD=
EXTT0=
EXTT1=
EXTT2=
EXTT3=
EXTT4=
EXTT5=
EXTT6=
EXTT7=
EXTT8=
EXTT9=
EXTT10=
EXTT11=
EXTT12=
EXTT13=
EXTT14=
EXTT15=
PLAYORDER=
